<svg width="18" height="18" viewBox="0 0 18 18" fill="none" xmlns="http://www.w3.org/2000/svg">
<path d="M12.7711 8.20654H13.3165C13.8304 8.20654 14.2471 8.62318 14.2471 9.13712V9.68251C14.2471 10.1965 13.8304 10.6131 13.3165 10.6131H12.7711C12.2571 10.6131 11.8405 10.1965 11.8405 9.68251V9.13712C11.8405 8.62318 12.2571 8.20654 12.7711 8.20654Z" fill="#602C8D"/>
<path d="M8.72664 8.20654H9.27204C9.78599 8.20654 10.2026 8.62318 10.2026 9.13712V9.68251C10.2026 10.1965 9.78599 10.6131 9.27204 10.6131H8.72664C8.21268 10.6131 7.79604 10.1965 7.79604 9.68251V9.13712C7.79604 8.62318 8.21268 8.20654 8.72664 8.20654Z" fill="#602C8D"/>
<path d="M4.68367 8.20654H5.22907C5.74302 8.20654 6.15967 8.62318 6.15967 9.13712V9.68251C6.15967 10.1965 5.74302 10.6131 5.22907 10.6131H4.68367C4.16971 10.6131 3.75307 10.1965 3.75307 9.68251V9.13712C3.75307 8.62318 4.16971 8.20654 4.68367 8.20654Z" fill="#602C8D"/>
<path d="M12.7711 12.2222H13.3165C13.8304 12.2222 14.2471 12.6388 14.2471 13.1527V13.6981C14.2471 14.2121 13.8304 14.6287 13.3165 14.6287H12.7711C12.2571 14.6287 11.8405 14.2121 11.8405 13.6981V13.1527C11.8405 12.6388 12.2571 12.2222 12.7711 12.2222Z" fill="#602C8D"/>
<path d="M8.72664 12.2222H9.27204C9.78599 12.2222 10.2026 12.6388 10.2026 13.1527V13.6981C10.2026 14.2121 9.78599 14.6287 9.27204 14.6287H8.72664C8.21268 14.6287 7.79604 14.2121 7.79604 13.6981V13.1527C7.79604 12.6388 8.21268 12.2222 8.72664 12.2222Z" fill="#602C8D"/>
<path d="M4.68367 12.2222H5.22907C5.74302 12.2222 6.15967 12.6388 6.15967 13.1527V13.6981C6.15967 14.2121 5.74302 14.6287 5.22907 14.6287H4.68367C4.16971 14.6287 3.75307 14.2121 3.75307 13.6981V13.1527C3.75307 12.6388 4.16971 12.2222 4.68367 12.2222Z" fill="#602C8D"/>
<path d="M2.2445 18.0001H15.7553C16.9199 18.0001 17.8667 17.1379 17.8667 16.0795V4.41762C17.8667 3.35745 16.9199 2.49707 15.7553 2.49707H2.2445C1.0799 2.49707 0.133099 3.35745 0.133099 4.41762V16.0795C0.133099 17.1379 1.0799 18.0001 2.2445 18.0001ZM15.7553 3.91904C16.1297 3.91904 16.4447 4.14763 16.4447 4.41762V16.0795C16.4447 16.3495 16.1297 16.5781 15.7553 16.5781H2.2445C1.8701 16.5781 1.5551 16.3495 1.5551 16.0795V4.41762C1.5551 4.14763 1.8701 3.91904 2.2445 3.91904H15.7553Z" fill="#602C8D"/>
<path d="M12.5477 6.02332C12.7345 6.01492 12.9108 5.93414 13.0391 5.79808C13.1674 5.66202 13.2378 5.48136 13.2353 5.29434V0.731453C13.2383 0.544125 13.1681 0.363007 13.0397 0.226558C12.9113 0.0901089 12.7348 0.00907737 12.5477 0.000670563C12.4518 -0.00148782 12.3564 0.0155406 12.2671 0.0507555C12.1779 0.0859704 12.0966 0.138662 12.028 0.205734C11.9595 0.272807 11.905 0.352909 11.8678 0.441334C11.8306 0.529759 11.8114 0.624725 11.8115 0.720653V5.31234C11.8126 5.40751 11.8326 5.5015 11.8704 5.58888C11.9081 5.67626 11.9628 5.7553 12.0312 5.82141C12.0997 5.88753 12.1806 5.93942 12.2692 5.97408C12.3579 6.00873 12.4525 6.02547 12.5477 6.02332Z" fill="#602C8D"/>
<path d="M9.02504 6.02309C9.21158 6.01424 9.38737 5.93326 9.51533 5.79725C9.64328 5.66124 9.71339 5.48083 9.71084 5.29411V0.731223C9.71386 0.544193 9.64397 0.363332 9.51596 0.226932C9.38796 0.0905316 9.21189 0.00930191 9.02504 0.000441154C8.92839 -0.00294364 8.83205 0.013177 8.74177 0.047841C8.65148 0.082505 8.56911 0.135002 8.49956 0.202198C8.43001 0.269395 8.37471 0.349914 8.33696 0.438951C8.29921 0.527987 8.27978 0.623716 8.27984 0.720424V5.31211C8.28098 5.40806 8.30129 5.50281 8.33958 5.5908C8.37786 5.67879 8.43334 5.75823 8.50277 5.82447C8.5722 5.89071 8.65416 5.9424 8.74385 5.97651C8.83354 6.01062 8.92915 6.02646 9.02504 6.02309Z" fill="#602C8D"/>
<path d="M5.50078 6.02332C5.68764 6.01492 5.86388 5.93414 5.99222 5.79808C6.12056 5.66202 6.19091 5.48136 6.18838 5.29434V0.731453C6.19138 0.544125 6.12124 0.363007 5.99286 0.226558C5.86447 0.0901089 5.68795 0.00907737 5.50078 0.000670563C5.40488 -0.00148782 5.30951 0.0155406 5.22027 0.0507555C5.13104 0.0859704 5.04975 0.138662 4.98116 0.205734C4.91258 0.272807 4.85809 0.352909 4.8209 0.441334C4.78371 0.529759 4.76456 0.624725 4.76458 0.720653V5.31234C4.76575 5.40751 4.78577 5.5015 4.8235 5.58888C4.86122 5.67626 4.91589 5.7553 4.98436 5.82141C5.05282 5.88753 5.13371 5.93942 5.22235 5.97408C5.311 6.00873 5.40563 6.02547 5.50078 6.02332Z" fill="#602C8D"/>
</svg>
