<svg width="39" height="39" viewBox="0 0 39 39" fill="none" xmlns="http://www.w3.org/2000/svg">
<path d="M19.5 0C8.83086 0 0.150024 8.74811 0.150024 19.5C0.150024 30.2518 8.83086 38.9999 19.5 38.9999C30.1692 38.9999 38.85 30.2518 38.85 19.5C38.85 8.74811 30.1696 0 19.5 0ZM13.0148 11.898C13.0212 11.7845 13.029 11.6718 13.038 11.5574C13.0935 7.97158 14.0756 6.45968 15.575 5.82529C16.5356 5.06262 17.8209 4.58812 19.5275 4.58812C21.2385 4.58812 22.5281 5.07519 23.493 5.85519C24.8544 6.46142 25.7754 7.82035 25.9397 10.8597C25.987 11.212 26.0201 11.5652 26.0382 11.9145C26.4462 12.0683 26.6243 13.006 26.4368 14.0811C26.2635 15.0696 25.8382 15.8435 25.4336 15.9653C24.7933 17.7259 23.7046 19.4254 22.3625 20.4858C21.5047 21.1631 20.5441 21.5821 19.5271 21.5821C18.5041 21.5821 17.5371 21.1579 16.6754 20.4723C15.3428 19.4133 14.2618 17.7263 13.6245 15.9757C13.2035 15.9154 12.7456 15.1164 12.5641 14.0807C12.3672 12.9592 12.5701 11.986 13.0148 11.898ZM19.5 36.7058C16.2591 36.7058 13.2289 35.7958 10.648 34.2155C8.88289 33.1348 7.33145 31.7373 6.06166 30.1071C6.30375 21.3771 9.89038 25.8413 15.1553 21.7416C15.1785 22.6451 17.1135 23.3748 19.5005 23.3748C21.8865 23.3748 23.8224 22.6451 23.8452 21.7416C29.1105 25.8413 32.6963 21.3767 32.9384 30.1071C31.669 31.7381 30.1172 33.1352 28.352 34.2155C25.7711 35.7958 22.7409 36.7058 19.5 36.7058Z" fill="#602C8D"/>
</svg>
