<svg width="40" height="40" viewBox="0 0 40 40" fill="none" xmlns="http://www.w3.org/2000/svg">
<path d="M20 0C9 0 0 9 0 20C0 31 9 40 20 40C31 40 40 31 40 20C40 9 31 0 20 0ZM20 6.66667C23.6667 6.66667 26.6667 10.3333 26.6667 15C26.6667 19.6667 23.6667 23.3333 20 23.3333C16.3333 23.3333 13.3333 19.6667 13.3333 15C13.3333 10.3333 16.3333 6.66667 20 6.66667ZM31 32.5C28.1667 35 24.1667 36.6667 20 36.6667C15.8333 36.6667 11.8333 35 9 32.5C8.33333 31.8333 8.16667 30.8333 8.83333 30.1667C10.6667 28 13.1667 26.5 15.8333 25.6667C17.1667 26.3333 18.5 26.6667 20 26.6667C21.5 26.6667 22.8333 26.3333 24.1667 25.6667C27 26.5 29.3333 28 31.1667 30.1667C31.8333 30.8333 31.8333 31.8333 31 32.5Z" fill="#602C8D"/>
</svg>
