<svg width="18" height="18" viewBox="0 0 18 18" fill="none" xmlns="http://www.w3.org/2000/svg">
<path fill-rule="evenodd" clip-rule="evenodd" d="M0 3C0 1.34277 1.34375 0 3 0H15C16.6562 0 18 1.34277 18 3V15C18 16.6572 16.6562 18 15 18H3C1.34375 18 0 16.6572 0 15V3ZM1.79883 3.7998C1.79883 2.69531 2.69336 1.7998 3.79883 1.7998H14.1992C15.3027 1.7998 16.1992 2.69531 16.1992 3.7998V14.2002C16.1992 15.3047 15.3027 16.2002 14.1992 16.2002H3.79883C2.69336 16.2002 1.79883 15.3047 1.79883 14.2002V3.7998ZM6 5C5.44727 5 5 5.44727 5 6C5 6.15332 5.03516 6.29785 5.0957 6.42773C5.17188 6.58887 5.29102 6.72754 5.4375 6.82715C5.59766 6.93652 5.79102 7 6 7H12C12.5527 7 13 6.55273 13 6C13 5.44727 12.5527 5 12 5H6ZM5 9C5 8.44727 5.44727 8 6 8H12C12.5527 8 13 8.44727 13 9C13 9.55273 12.5527 10 12 10H6C5.69727 10 5.42773 9.86621 5.24414 9.65527C5.0918 9.47949 5 9.25098 5 9ZM6 11C5.44727 11 5 11.4473 5 12C5 12.5527 5.44727 13 6 13H12C12.5527 13 13 12.5527 13 12C13 11.4473 12.5527 11 12 11H6Z" fill="#602C8D"/>
</svg>
