<svg width="17" height="14" viewBox="0 0 17 14" fill="none" xmlns="http://www.w3.org/2000/svg">
<path fill-rule="evenodd" clip-rule="evenodd" d="M10.9482 9.93613C11.3891 10.3477 11.7471 10.6611 12.1472 11.0534C14.4421 8.20271 14.2657 5.62175 11.7801 3.07353C11.4412 3.44553 11.0718 3.80784 10.7328 4.17974C12.7038 6.20377 12.5386 8.11856 10.9482 9.93613ZM12.9855 1.86205C13.3481 1.49311 13.7109 1.12396 14.0736 0.75502C17.9762 4.7226 17.8513 9.34136 14.4381 13.2449C14.0864 12.905 13.7348 12.565 13.383 12.2252C16.1972 9.08391 16.1641 4.91803 12.9855 1.86205ZM9.53672 0L3.64137 3.34261H0V10.6567H3.64137L9.53683 14V0H9.53672Z" fill="#602C8D"/>
</svg>
