<svg width="15" height="16" viewBox="0 0 15 16" fill="none" xmlns="http://www.w3.org/2000/svg">
<path d="M14.2186 2.29141H11.1499L10.54 1.06812C10.382 0.743494 10.1371 0.470993 9.83356 0.282038C9.53006 0.0930829 9.18031 -0.00462949 8.82465 0.000168577H6.13723C5.78157 -0.00462949 5.43182 0.0930829 5.12831 0.282038C4.82481 0.470993 4.57991 0.743494 4.42185 1.06812L3.831 2.29141H0.762389C0.560191 2.29141 0.366274 2.37324 0.223298 2.51889C0.0803228 2.66455 0 2.86211 0 3.0681C0 3.27409 0.0803228 3.47164 0.223298 3.6173C0.366274 3.76296 0.560191 3.84479 0.762389 3.84479H1.82973V13.2816C1.82973 14.0026 2.11086 14.694 2.61128 15.2038C3.11169 15.7136 3.7904 16 4.49809 16H10.5019C11.2096 16 11.8883 15.7136 12.3887 15.2038C12.8891 14.694 13.1703 14.0026 13.1703 13.2816V3.84479H14.2376C14.4398 3.84479 14.6337 3.76296 14.7767 3.6173C14.9197 3.47164 15 3.27409 15 3.0681C15 2.86211 14.9197 2.66455 14.7767 2.51889C14.6337 2.37324 14.4398 2.29141 14.2376 2.29141H14.2186ZM5.79415 1.76714C5.82612 1.70251 5.87518 1.64826 5.9358 1.61052C5.99642 1.57278 6.06619 1.55305 6.13723 1.55355H8.84371C8.91475 1.55305 8.98452 1.57278 9.04514 1.61052C9.10576 1.64826 9.15482 1.70251 9.18678 1.76714L9.43456 2.29141H5.54638L5.79415 1.76714ZM11.6455 13.2816C11.6455 13.5906 11.525 13.8869 11.3105 14.1054C11.0961 14.3239 10.8052 14.4466 10.5019 14.4466H4.47903C4.17574 14.4466 3.88486 14.3239 3.6704 14.1054C3.45594 13.8869 3.33545 13.5906 3.33545 13.2816V3.84479H11.6455V13.2816Z" fill="#602C8D"/>
<path d="M9.16778 12.8545C9.36998 12.8545 9.5639 12.7726 9.70687 12.627C9.84985 12.4813 9.93017 12.2838 9.93017 12.0778V6.38851C9.93017 6.18252 9.84985 5.98496 9.70687 5.8393C9.5639 5.69365 9.36998 5.61182 9.16778 5.61182C8.96559 5.61182 8.77167 5.69365 8.62869 5.8393C8.48572 5.98496 8.4054 6.18252 8.4054 6.38851V12.0778C8.4054 12.2838 8.48572 12.4813 8.62869 12.627C8.77167 12.7726 8.96559 12.8545 9.16778 12.8545Z" fill="#602C8D"/>
<path d="M5.81329 12.8545C6.01549 12.8545 6.20941 12.7726 6.35238 12.627C6.49536 12.4813 6.57568 12.2838 6.57568 12.0778V6.38851C6.57568 6.18252 6.49536 5.98496 6.35238 5.8393C6.20941 5.69365 6.01549 5.61182 5.81329 5.61182C5.61109 5.61182 5.41718 5.69365 5.2742 5.8393C5.13123 5.98496 5.0509 6.18252 5.0509 6.38851V12.0778C5.0509 12.2838 5.13123 12.4813 5.2742 12.627C5.41718 12.7726 5.61109 12.8545 5.81329 12.8545Z" fill="#602C8D"/>
</svg>
