<svg width="13" height="8" viewBox="0 0 13 8" fill="none" xmlns="http://www.w3.org/2000/svg">
<path fill-rule="evenodd" clip-rule="evenodd" d="M0 0.799805C0 0.358398 0.358398 0 0.799805 0H12.2002C12.6416 0 13 0.358398 13 0.799805C13 1.05273 12.8828 1.27832 12.6992 1.42529C12.5625 1.53467 12.3887 1.6001 12.2002 1.6001H0.799805C0.358398 1.6001 0 1.2417 0 0.799805ZM0 4C0 3.55859 0.358398 3.2002 0.799805 3.2002H8.9502C9.10254 3.2002 9.24512 3.24268 9.36621 3.31641C9.40234 3.33887 9.4375 3.36426 9.46973 3.39209C9.58984 3.49463 9.67871 3.63135 9.72168 3.78711C9.74023 3.85498 9.75 3.92627 9.75 4C9.75 4.44189 9.3916 4.80029 8.9502 4.80029H0.799805C0.358398 4.80029 0 4.44189 0 4ZM0.799805 6.3999C0.358398 6.3999 0 6.7583 0 7.19971C0 7.6416 0.358398 8 0.799805 8H5.7002C5.91992 8 6.11816 7.91162 6.2627 7.76807C6.40918 7.62305 6.5 7.42188 6.5 7.19971C6.5 6.7583 6.1416 6.3999 5.7002 6.3999H0.799805Z" fill="#602C8D"/>
</svg>
