<svg width="13" height="8" viewBox="0 0 13 8" fill="none" xmlns="http://www.w3.org/2000/svg">
<path fill-rule="evenodd" clip-rule="evenodd" d="M0 7.2C0 7.64183 0.358172 8 0.8 8H12.2C12.6418 8 13 7.64183 13 7.2C13 6.75817 12.6418 6.4 12.2 6.4H0.8C0.358172 6.4 0 6.75817 0 7.2ZM0 4C0 4.44183 0.358172 4.8 0.8 4.8H8.95C9.39183 4.8 9.75 4.44183 9.75 4C9.75 3.55817 9.39183 3.2 8.95 3.2H0.8C0.358172 3.2 0 3.55817 0 4ZM0.8 1.6C0.358172 1.6 0 1.24183 0 0.8C0 0.358172 0.358172 0 0.8 0H5.7C6.14183 0 6.5 0.358172 6.5 0.8C6.5 1.24183 6.14183 1.6 5.7 1.6H0.8Z" fill="#602C8D"/>
</svg>
