<svg width="44" height="34" viewBox="0 0 44 34" fill="none" xmlns="http://www.w3.org/2000/svg">
<path d="M27.2698 21.3177V12.6823C27.2697 11.9634 27.5558 11.2735 28.0662 10.762C28.5765 10.2505 29.2699 9.9586 29.9961 9.94961H39.2727V3.52092C39.2727 2.85233 39.0044 2.21113 38.5267 1.73836C38.0491 1.2656 37.4013 1 36.7258 1H3.54691C2.87143 1 2.22361 1.2656 1.74597 1.73836C1.26833 2.21113 1 2.85233 1 3.52092V30.4791C1 31.1477 1.26833 31.7889 1.74597 32.2616C2.22361 32.7344 2.87143 33 3.54691 33H36.7258C37.4013 33 38.0491 32.7344 38.5267 32.2616C39.0044 31.7889 39.2727 31.1477 39.2727 30.4791V24.0231H29.9961C29.2747 24.0142 28.5854 23.7261 28.0758 23.2204C27.5663 22.7148 27.2769 22.0318 27.2698 21.3177ZM42.9999 12.6823V21.3177C43.0017 21.4247 42.982 21.531 42.9419 21.6304C42.9018 21.7298 42.8421 21.8202 42.7663 21.8966C42.6905 21.9729 42.6 22.0335 42.5003 22.0748C42.4006 22.1162 42.2936 22.1375 42.1854 22.1375H29.9961C29.8886 22.1375 29.7821 22.1164 29.6829 22.0755C29.5836 22.0345 29.4935 21.9745 29.4178 21.899C29.3421 21.8234 29.2822 21.7337 29.2417 21.6351C29.2012 21.5365 29.1808 21.4309 29.1817 21.3245V12.6823C29.1853 12.4709 29.2727 12.2693 29.4251 12.1211C29.5774 11.9729 29.7825 11.8898 29.9961 11.8898H42.1854C42.3991 11.8898 42.6042 11.9729 42.7565 12.1211C42.9089 12.2693 42.9963 12.4709 42.9999 12.6823ZM37.768 17C37.768 16.6717 37.6696 16.3507 37.4854 16.0777C37.3011 15.8047 37.0391 15.5919 36.7326 15.4662C36.4262 15.3406 36.0889 15.3077 35.7636 15.3718C35.4382 15.4358 35.1394 15.5939 34.9048 15.8261C34.6702 16.0583 34.5105 16.3541 34.4458 16.6761C34.3811 16.9982 34.4143 17.3319 34.5412 17.6353C34.6682 17.9386 34.8831 18.1979 35.159 18.3803C35.4348 18.5628 35.7591 18.6601 36.0908 18.6601C36.5356 18.6601 36.9622 18.4852 37.2768 18.1739C37.5913 17.8625 37.768 17.4403 37.768 17Z" fill="#602C8D" stroke="black" stroke-width="0.01" stroke-miterlimit="10"/>
</svg>
