<svg width="16" height="11" viewBox="0 0 16 11" fill="none" xmlns="http://www.w3.org/2000/svg">
<path d="M9.2 5.2737L14.7877 0.409091C14.3707 0.152033 13.8709 0 13.3333 0H2.66667C2.12907 0 1.63253 0.152533 1.21227 0.409091L6.79893 5.2737C7.45013 5.84033 8.54987 5.84033 9.2 5.2737ZM0.452266 1.11175C0.166933 1.50934 0 1.98695 0 2.50057V8.50193C0 9.01105 0.1648 9.48365 0.443734 9.87874L5.296 5.32921L0.452266 1.11175ZM7.99893 6.69952C7.304 6.69952 6.60853 6.46997 6.07787 6.00887L1.19787 10.5834C1.61973 10.844 2.12373 11 2.66667 11H13.3333C13.8763 11 14.3803 10.8435 14.8021 10.5834L9.92213 6.00887C9.3904 6.46997 8.696 6.69952 7.99893 6.69952ZM15.5477 1.11175L10.704 5.33171L15.5552 9.88125C15.8352 9.48616 16 9.01555 16 8.50443V2.50307C16 1.98695 15.8336 1.50884 15.5477 1.11175Z" fill="white"/>
</svg>
