<svg width="25" height="25" viewBox="0 0 25 25" fill="none" xmlns="http://www.w3.org/2000/svg">
<path d="M16.9253 10.0048C17.0141 9.91233 17.0658 9.78984 17.0705 9.66113C17.0751 9.53243 17.0323 9.40669 16.9504 9.30831C16.8685 9.20994 16.7532 9.14595 16.6271 9.12877C16.501 9.11158 16.3729 9.14243 16.2678 9.21532L6.28445 16.1338L1.64871 13.7338C1.44696 13.6303 1.27898 13.4703 1.16473 13.2728C1.05048 13.0753 0.994757 12.8486 1.00419 12.6197C1.01363 12.3909 1.08782 12.1694 1.21795 11.9816C1.34809 11.7938 1.52869 11.6476 1.73831 11.5604L23.0046 2.29425C23.1714 2.22486 23.3536 2.20253 23.5317 2.22964C23.7098 2.25676 23.8771 2.33231 24.0159 2.44822C24.1547 2.56413 24.2596 2.71606 24.3196 2.88778C24.3795 3.05951 24.3922 3.24459 24.3563 3.42328L20.644 21.807C20.6064 21.9956 20.5258 22.1728 20.4086 22.3245C20.2914 22.4762 20.1409 22.5983 19.969 22.681C19.7972 22.7636 19.6087 22.8046 19.4186 22.8007C19.2286 22.7968 19.0421 22.748 18.8742 22.6583L13.2326 19.7349L9.17078 22.8488C9.02092 22.9633 8.84125 23.031 8.65401 23.0434C8.46677 23.0558 8.28016 23.0125 8.11728 22.9187C7.9544 22.8249 7.82238 22.6848 7.73755 22.5158C7.65273 22.3467 7.61882 22.1561 7.64002 21.9675L7.9291 19.2171L16.9253 10.0048Z" fill="#602C8D"/>
</svg>
