<svg width="18" height="17" viewBox="0 0 18 17" fill="none" xmlns="http://www.w3.org/2000/svg">
<path d="M0 15.1786C0 14.8183 0.105568 14.4662 0.303355 14.1666C0.501141 13.8671 0.782263 13.6337 1.11117 13.4958C1.44008 13.3579 1.802 13.3219 2.15116 13.3921C2.50033 13.4624 2.82106 13.6359 3.07279 13.8906C3.32453 14.1454 3.49596 14.4699 3.56541 14.8232C3.63487 15.1766 3.59922 15.5428 3.46298 15.8756C3.32675 16.2084 3.09603 16.4929 2.80003 16.693C2.50402 16.8932 2.15601 17 1.8 17C1.32261 17 0.864773 16.8081 0.527208 16.4665C0.189642 16.1249 0 15.6616 0 15.1786V15.1786ZM1.8 3.64286C2.15601 3.64286 2.50402 3.53603 2.80003 3.33589C3.09603 3.13575 3.32675 2.85128 3.46298 2.51846C3.59922 2.18564 3.63487 1.81941 3.56541 1.46609C3.49596 1.11276 3.32453 0.788216 3.07279 0.533485C2.82106 0.278753 2.50033 0.105279 2.15116 0.0349991C1.802 -0.0352812 1.44008 0.00078918 1.11117 0.138649C0.782263 0.276508 0.501141 0.509965 0.303355 0.809498C0.105568 1.10903 0 1.46118 0 1.82143C0 2.3045 0.189642 2.76779 0.527208 3.10937C0.864773 3.45096 1.32261 3.64286 1.8 3.64286V3.64286ZM1.8 10.3214C2.15601 10.3214 2.50402 10.2146 2.80003 10.0145C3.09603 9.81432 3.32675 9.52985 3.46298 9.19703C3.59922 8.86421 3.63487 8.49798 3.56541 8.14466C3.49596 7.79133 3.32453 7.46679 3.07279 7.21206C2.82106 6.95732 2.50033 6.78385 2.15116 6.71357C1.802 6.64329 1.44008 6.67936 1.11117 6.81722C0.782263 6.95508 0.501141 7.18854 0.303355 7.48807C0.105568 7.7876 0 8.13976 0 8.5C0 8.98307 0.189642 9.44636 0.527208 9.78794C0.864773 10.1295 1.32261 10.3214 1.8 10.3214ZM7.8 3.03571H16.8C17.1183 3.03571 17.4235 2.90778 17.6485 2.68006C17.8736 2.45234 18 2.14348 18 1.82143C18 1.49938 17.8736 1.19052 17.6485 0.9628C17.4235 0.735077 17.1183 0.607144 16.8 0.607144H7.8C7.48174 0.607144 7.17652 0.735077 6.95147 0.9628C6.72643 1.19052 6.6 1.49938 6.6 1.82143C6.6 2.14348 6.72643 2.45234 6.95147 2.68006C7.17652 2.90778 7.48174 3.03571 7.8 3.03571V3.03571ZM7.8 9.71429H16.8C17.1183 9.71429 17.4235 9.58635 17.6485 9.35863C17.8736 9.13091 18 8.82205 18 8.5C18 8.17795 17.8736 7.86909 17.6485 7.64137C17.4235 7.41365 17.1183 7.28571 16.8 7.28571H7.8C7.48174 7.28571 7.17652 7.41365 6.95147 7.64137C6.72643 7.86909 6.6 8.17795 6.6 8.5C6.6 8.82205 6.72643 9.13091 6.95147 9.35863C7.17652 9.58635 7.48174 9.71429 7.8 9.71429V9.71429ZM7.8 16.3929H16.8C17.1183 16.3929 17.4235 16.2649 17.6485 16.0372C17.8736 15.8095 18 15.5006 18 15.1786C18 14.8565 17.8736 14.5477 17.6485 14.3199C17.4235 14.0922 17.1183 13.9643 16.8 13.9643H7.8C7.48174 13.9643 7.17652 14.0922 6.95147 14.3199C6.72643 14.5477 6.6 14.8565 6.6 15.1786C6.6 15.5006 6.72643 15.8095 6.95147 16.0372C7.17652 16.2649 7.48174 16.3929 7.8 16.3929Z" fill="#602C8D"/>
</svg>
