<svg width="20" height="20" viewBox="0 0 20 20" fill="none" xmlns="http://www.w3.org/2000/svg">
<path d="M10.5655 14.2001C10.5614 14.1984 10.5574 14.1967 10.5534 14.1951C10.5576 14.197 10.5616 14.1985 10.5655 14.2001ZM10.3968 14.0145C10.6707 13.7418 10.6707 13.7418 10.9995 13.4145C11.3048 13.1108 11.5448 12.8722 11.698 12.7204C12.5793 11.8468 13.7895 11.8467 14.6724 12.7215C15.3829 13.4255 16.1025 14.1447 16.8347 14.8824C17.7261 15.7807 17.7202 16.9917 16.8269 17.8932C16.6531 18.0686 16.388 18.2628 16.0283 18.4944C15.9503 18.5446 15.8685 18.5961 15.7833 18.6487C15.5547 18.7897 15.3115 18.9326 15.0685 19.0707C14.9226 19.1535 14.8086 19.2167 14.7584 19.2438C13.8 19.7966 12.2767 19.9137 11.2964 19.5341C11.1981 19.5042 11.0274 19.4462 10.7944 19.3577C10.414 19.2132 9.99202 19.0333 9.53885 18.8156C8.2478 18.1954 6.95758 17.3942 5.75105 16.3905C5.26607 15.987 4.8036 15.5574 4.36692 15.1009C4.01485 14.7328 3.68031 14.3494 3.36284 13.9524C2.31844 12.646 1.49899 11.2491 0.877462 9.8514C0.659356 9.36092 0.481233 8.90431 0.339904 8.49265C0.253449 8.24082 0.197628 8.05645 0.188947 8.01294C-0.189483 6.97083 0.0198262 5.44027 0.644532 4.52636C0.681606 4.46898 0.745761 4.3718 0.829962 4.24778C0.970235 4.04119 1.1161 3.83437 1.26109 3.63968C1.32432 3.55478 1.38621 3.47381 1.44653 3.39727C1.60391 3.19758 1.74791 3.03121 1.88094 2.90032C2.76344 2.0324 3.97046 2.03365 4.8541 2.90135C5.16716 3.20857 6.51475 4.5571 7.00298 5.04953C7.90934 5.9644 7.91148 7.16266 7.00534 8.07329C6.88701 8.19225 6.63033 8.44943 6.27619 8.80398C5.97552 9.10495 5.97552 9.10495 5.7257 9.35496C5.70314 9.37753 5.68314 9.39755 5.66531 9.41538C5.70806 9.51561 5.76066 9.63464 5.82257 9.76869C6.03687 10.2327 6.28204 10.6962 6.55181 11.1248C6.84556 11.5916 7.14989 11.986 7.45541 12.2839C7.73918 12.5606 8.08046 12.8305 8.46686 13.09C8.92157 13.3952 9.41301 13.6694 9.90479 13.9066C10.0619 13.9824 10.1995 14.0453 10.3152 14.0958C10.3384 14.0727 10.3653 14.0459 10.3968 14.0145ZM15.77 15.9391C15.0408 15.2043 14.324 14.488 13.6166 13.787C13.3185 13.4916 13.0507 13.4916 12.7539 13.7858C12.6016 13.9367 12.3621 14.1747 12.0594 14.476C11.729 14.8048 11.729 14.8048 11.4553 15.0773C11.2364 15.2954 11.2364 15.2954 11.1817 15.3499C10.8758 15.6546 10.38 15.7495 10.0033 15.5906C9.84668 15.5298 9.58527 15.4179 9.25314 15.2577C8.70163 14.9917 8.1498 14.6838 7.63078 14.3353C7.17342 14.0283 6.76219 13.703 6.40828 13.3579C6.00851 12.9682 5.63443 12.4833 5.28232 11.9238C4.97489 11.4354 4.70037 10.9163 4.46081 10.3977C4.31666 10.0856 4.21504 9.84012 4.16489 9.70709C4.00702 9.31315 4.12271 8.83694 4.41496 8.54452C4.46489 8.49457 4.46489 8.49457 4.66468 8.29466C4.91442 8.04474 4.91442 8.04474 5.21408 7.74477C5.56823 7.39022 5.82458 7.13336 5.94197 7.01535C6.26545 6.69027 6.26499 6.43592 5.93758 6.10543C5.45411 5.6178 4.11029 4.27305 3.8033 3.97178C3.50264 3.67655 3.23117 3.67627 2.93284 3.96967C2.85225 4.04896 2.74631 4.17136 2.62463 4.32575C2.57317 4.39105 2.51951 4.46125 2.46412 4.53563C2.33356 4.71094 2.19983 4.90055 2.07094 5.09038C1.99365 5.20422 1.93567 5.29204 1.89375 5.35646C1.52759 5.8924 1.38729 6.91832 1.61847 7.56328C1.63802 7.63642 1.68379 7.78761 1.75863 8.00559C1.88611 8.37692 2.04834 8.79279 2.24806 9.24191C2.82031 10.5288 3.57564 11.8164 4.53443 13.0157C4.82459 13.3786 5.12996 13.7285 5.45087 14.064C5.84745 14.4786 6.26829 14.8695 6.71037 15.2373C7.81568 16.1569 9.00243 16.8938 10.1884 17.4635C10.6021 17.6623 10.9852 17.8256 11.3272 17.9555C11.5277 18.0317 11.6666 18.0789 11.7844 18.1168C12.3936 18.3513 13.4433 18.2707 14.0254 17.9352C14.0844 17.9031 14.1904 17.8444 14.3275 17.7665C14.556 17.6367 14.7843 17.5025 14.9958 17.372C15.0731 17.3244 15.1468 17.278 15.2163 17.2332C15.4884 17.058 15.6869 16.9126 15.7614 16.8374C16.0775 16.5184 16.0788 16.2502 15.77 15.9391ZM19.5001 10C19.5001 10.4142 19.1643 10.75 18.7501 10.75C18.3359 10.75 18.0001 10.4142 18.0001 10C18.0001 5.44365 14.3064 1.75 9.75006 1.75C9.33585 1.75 9.00006 1.41421 9.00006 1C9.00006 0.585786 9.33585 0.25 9.75006 0.25C15.1348 0.25 19.5001 4.61522 19.5001 10ZM16.5001 10C16.5001 10.4142 16.1643 10.75 15.7501 10.75C15.3359 10.75 15.0001 10.4142 15.0001 10C15.0001 7.1005 12.6496 4.75 9.75006 4.75C9.33585 4.75 9.00006 4.41421 9.00006 4C9.00006 3.58579 9.33585 3.25 9.75006 3.25C13.478 3.25 16.5001 6.27208 16.5001 10Z" fill="#602C8D"/>
</svg>
