<svg width="41" height="41" viewBox="0 0 41 41" fill="none" xmlns="http://www.w3.org/2000/svg">
<path d="M41 20.5C41 9.18782 31.8122 0 20.5 0C9.18782 0 0 9.18782 0 20.5C0 31.8122 9.18782 41 20.5 41C31.8122 41 41 31.8122 41 20.5ZM18.2694 11.2591C18.2694 10.0376 19.2785 9.0285 20.5 9.0285C21.7215 9.0285 22.7306 10.0376 22.7306 11.2591V20.1282C22.7306 21.3497 21.7215 22.3588 20.5 22.3588C19.2785 22.3588 18.2694 21.3497 18.2694 20.1282V11.2591ZM18.4288 28.0946C18.4288 26.9793 19.3316 26.0233 20.5 26.0233C21.6153 26.0233 22.5712 26.9262 22.5712 28.0946C22.5712 29.2098 21.6684 30.1658 20.5 30.1658C19.3847 30.1658 18.4288 29.263 18.4288 28.0946Z" fill="#602C8D"/>
</svg>
