<?xml version="1.0" encoding="UTF-8"?>
<svg width="507px" height="148px" viewBox="0 0 507 148" version="1.1" xmlns="http://www.w3.org/2000/svg" xmlns:xlink="http://www.w3.org/1999/xlink">
    <!-- Generator: Sketch 50.2 (55047) - http://www.bohemiancoding.com/sketch -->
    <title>color</title>
    <desc>Created with Sketch.</desc>
    <defs></defs>
    <g id="Page-1" stroke="none" stroke-width="1" fill="none" fill-rule="evenodd">
        <g id="Artboard-4-Copy" transform="translate(-99.000000, -59.000000)">
            <g id="color" transform="translate(103.000000, 62.000000)">
                <path d="M68.0002927,7.47246783 C101.016009,7.47246783 127.929609,34.0718725 128.55955,67 L136,67 C135.378255,29.9520441 105.124679,0 68.0002927,0 C30.8759067,0 0.621159616,29.9520441 0,67 L7.44045011,67 C8.07039143,34.0718725 34.9834052,7.47246783 68.0002927,7.47246783" id="Fill-92" stroke="#662F89" stroke-width="6" fill="#662F90"></path>
                <path d="M68.0008804,134.582177 C36.187428,134.582177 10.0275091,110.070473 7.47661035,79 L0,79 C2.57848557,114.166778 32.0805162,142 68.0008804,142 C103.921245,142 133.422101,114.166778 136,79 L128.52339,79 C125.973665,110.070473 99.8143329,134.582177 68.0008804,134.582177" id="Fill-94" stroke="#662F89" stroke-width="6" fill="#662F90"></path>
                <path d="M81.6104396,63.7830135 L81.6104396,63.9405821 C81.6104396,68.7844592 78.0370933,72.5009056 71.9220474,72.5009056 L62.2327644,72.5009056 L62.2327644,55.2245011 L71.681508,55.2245011 C77.7974448,55.2245011 81.6104396,58.2083439 81.6104396,63.7830135 Z M56.1150459,44 C52.7011683,44 50,46.7456787 50,50.217622 L50,94.7805669 C50,98.2579436 52.7011683,101 56.1150459,101 C59.532487,101 62.2327644,98.2579436 62.2327644,94.7805669 L62.2327644,83.5569713 L71.524712,83.5569713 C83.9953431,83.5569713 94,76.7760867 94,63.7033236 L94,63.5357937 C94,51.992533 85.9802385,44 72.7167183,44 L56.1150459,44 Z" id="Fill-96" fill="#662F90"></path>
                <path d="M186.943289,57.4990083 C191.389459,57.4990083 193.989305,54.8292777 193.989305,51.3453389 L193.989305,51.2263316 C193.989305,47.220744 191.215873,45.069687 186.76773,45.069687 L179.8953,45.069687 L179.8953,57.4990083 L186.943289,57.4990083 Z M171,41.4707078 C171,38.9745295 172.964679,37 175.448143,37 L187.520265,37 C197.165141,37 203,42.7470611 203,51.053771 L203,51.1688114 C203,60.5783223 195.721221,65.4566301 186.653321,65.4566301 L179.8953,65.4566301 L179.8953,73.530284 C179.8953,76.0264622 177.932594,78 175.448143,78 C172.964679,78 171,76.0264622 171,73.530284 L171,41.4707078 Z" id="Fill-3" fill="#662F90"></path>
                <path d="M229,60.7812284 L229,41.509181 C229,38.9915216 231.006438,37 233.542956,37 C236.081488,37 238.087927,38.9915216 238.087927,41.509181 L238.087927,60.5491676 C238.087927,67.2239158 241.45181,70.6798209 246.999496,70.6798209 C252.546175,70.6798209 255.911066,67.3439472 255.911066,60.8402439 L255.911066,41.509181 C255.911066,38.9915216 257.916496,37 260.457044,37 C262.993562,37 265,38.9915216 265,41.509181 L265,60.4871514 C265,72.9064041 257.976962,79 246.882597,79 C235.787224,79 229,72.8483889 229,60.7812284" id="Fill-5" fill="#662F90"></path>
                <path d="M312.048769,56.7458094 C316.41483,56.7458094 318.92094,54.422248 318.92094,50.9959122 L318.92094,50.8808746 C318.92094,47.0479404 316.241857,45.0704835 311.874803,45.0704835 L302.966727,45.0704835 L302.966727,56.7458094 L312.048769,56.7458094 Z M294,41.4715913 C294,38.9744818 295.982223,37 298.484358,37 L312.630314,37 C317.812526,37 321.831647,38.4488789 324.506754,41.12152 C326.778259,43.3875626 328,46.5828314 328,50.4157657 L328,50.5308033 C328,56.9183659 324.800012,60.8663377 319.849424,62.9013134 L326.077422,70.4521443 C326.952225,71.5549186 327.536752,72.4841448 327.536752,73.8774883 C327.536752,76.3745979 325.439214,78 323.283024,78 C321.246126,78 319.910064,77.013255 318.860301,75.6764386 L310.127186,64.6417531 L302.966727,64.6417531 L302.966727,73.5294004 C302.966727,76.0255182 300.987486,78 298.484358,78 C295.982223,78 294,76.0255182 294,73.5294004 L294,41.4715913 Z" id="Fill-7" fill="#662F90"></path>
                <path d="M371.942797,57.4990083 C376.389817,57.4990083 378.98761,54.8292777 378.98761,51.3453389 L378.98761,51.2263316 C378.98761,47.220744 376.217222,45.069687 371.767244,45.069687 L364.895026,45.069687 L364.895026,57.4990083 L371.942797,57.4990083 Z M356,41.4707078 C356,38.9745295 357.963632,37 360.449978,37 L372.519756,37 C382.164335,37 388,42.7470611 388,51.053771 L388,51.1688114 C388,60.5783223 380.720459,65.4566301 371.652839,65.4566301 L364.895026,65.4566301 L364.895026,73.530284 C364.895026,76.0264622 362.93238,78 360.449978,78 C357.963632,78 356,76.0264622 356,73.530284 L356,41.4707078 Z" id="Fill-9" fill="#662F90"></path>
                <path d="M415,41.4707078 C415,38.9735378 417.002751,37 419.539904,37 C422.073032,37 424.077795,38.9735378 424.077795,41.4707078 L424.077795,69.8727928 L440.875742,69.8727928 C443.175383,69.8727928 445,71.6707948 445,73.9359005 C445,76.201998 443.175383,78 440.875742,78 L419.539904,78 C417.002751,78 415,76.0264622 415,73.5292922 L415,41.4707078 Z" id="Fill-11" fill="#662F90"></path>
                <path d="M471,73.4909002 L471,41.5090998 C471,38.9914857 473.021351,37 475.57389,37 L498.607565,37 C500.865112,37 502.701967,38.8134423 502.701967,41.0409856 C502.701967,43.2645279 500.865112,45.0229568 498.607565,45.0229568 L480.08493,45.0229568 L480.08493,53.3399854 L495.934394,53.3399854 C498.190927,53.3399854 500.02981,55.1564284 500.02981,57.3839717 C500.02981,59.607514 498.190927,61.3659429 495.934394,61.3659429 L480.08493,61.3659429 L480.08493,69.9770432 L498.905598,69.9770432 C501.160104,69.9770432 503,71.7904855 503,74.0170285 C503,76.2455721 501.160104,78 498.905598,78 L475.57389,78 C473.021351,78 471,76.0095145 471,73.4909002" id="Fill-13" fill="#662F90"></path>
                <path d="M171,90.7737998 C171,89.817738 171.749852,89.0274614 172.728182,89.0274614 L173.08952,89.0274614 C173.925933,89.0274614 174.401007,89.4515867 174.873061,90.0435313 L184.630195,102.800854 L184.630195,90.6903987 C184.630195,89.7617982 185.384073,89 186.30302,89 C187.250148,89 188,89.7617982 188,90.6903987 L188,107.25061 C188,108.21074 187.277324,108.969487 186.330195,108.969487 L186.189284,108.969487 C185.384073,108.969487 184.880817,108.548413 184.405743,107.92799 L174.373831,94.8024817 L174.373831,107.309601 C174.373831,108.238202 173.619953,109 172.7,109 C171.749852,109 171,108.238202 171,107.309601 L171,90.7737998 Z" id="Fill-15" fill="#636463"></path>
                <path d="M202,100.396006 L202,90.7046601 C202,89.7554973 202.764621,89 203.756783,89 C204.724346,89 205.487942,89.7554973 205.487942,90.7046601 L205.487942,100.257817 C205.487942,103.888037 207.392319,105.816623 210.516399,105.816623 C213.607681,105.816623 215.508983,104.001009 215.508983,100.396006 L215.508983,90.7046601 C215.508983,89.7554973 216.276679,89 217.267816,89 C218.236404,89 219,89.7554973 219,90.7046601 L219,100.230583 C219,106.067783 215.651453,109 210.455927,109 C205.292174,109 202,106.067783 202,100.396006" id="Fill-17" fill="#636463"></path>
                <path d="M233,90.7487396 C233,89.7913632 233.743925,89 234.712224,89 L235.070225,89 C235.817142,89 236.311762,89.3972093 236.64583,89.9298773 L242.499501,99.2948516 L248.380098,89.9023782 C248.742088,89.3106381 249.235711,89 249.929775,89 L250.286779,89 C251.252086,89 252,89.7913632 252,90.7487396 L252,107.278759 C252,108.237154 251.252086,109 250.286779,109 C249.376319,109 248.602477,108.209655 248.602477,107.278759 L248.602477,95.431736 L243.880649,102.681316 C243.523645,103.245557 243.078885,103.583694 242.445652,103.583694 C241.837348,103.583694 241.394584,103.245557 241.036582,102.681316 L236.343673,95.4867342 L236.343673,107.307277 C236.343673,108.264653 235.596756,109 234.657377,109 C233.717,109 233,108.264653 233,107.307277 L233,90.7487396 Z" id="Fill-19" fill="#636463"></path>
                <path d="M274.91917,105.038846 C277.223289,105.038846 278.623599,104.143933 278.623599,102.433502 L278.623599,102.379591 C278.623599,100.776981 277.335274,99.8291374 274.675379,99.8291374 L269.322886,99.8291374 L269.322886,105.038846 L274.91917,105.038846 Z M273.932115,97.0061907 C276.098483,97.0061907 277.552307,96.1642076 277.552307,94.4273112 L277.552307,94.3734007 C277.552307,92.8786112 276.345246,91.9562526 274.17987,91.9562526 L269.322886,91.9562526 L269.322886,97.0061907 L273.932115,97.0061907 Z M266,90.682986 C266,89.7302414 266.742273,89 267.70257,89 L274.616909,89 C276.813998,89 278.542335,89.5959554 279.641375,90.682986 C280.491669,91.5239889 280.928709,92.5531882 280.928709,93.8303756 L280.928709,93.884286 C280.928709,96.1642076 279.613627,97.384544 278.186559,98.1187061 C280.433199,98.8803137 282,100.15456 282,102.73148 L282,102.789311 C282,106.181748 279.172623,108 274.892413,108 L267.70257,108 C266.742273,108 266,107.267798 266,106.316034 L266,90.682986 Z" id="Fill-21" fill="#636463"></path>
                <path d="M295,106.316034 L295,90.682986 C295,89.7302414 295.767918,89 296.759044,89 L308.298294,89 C309.149147,89 309.856655,89.676331 309.856655,90.4908688 C309.856655,91.3328518 309.149147,91.9836979 308.298294,91.9836979 L298.488396,91.9836979 L298.488396,96.9258151 L307.023549,96.9258151 C307.870307,96.9258151 308.582935,97.6021461 308.582935,98.4441292 C308.582935,99.2586669 307.870307,99.909513 307.023549,99.909513 L298.488396,99.909513 L298.488396,105.012381 L308.438567,105.012381 C309.28942,105.012381 310,105.692633 310,106.507171 C310,107.349154 309.28942,108 308.438567,108 L296.759044,108 C295.767918,108 295,107.268778 295,106.316034" id="Fill-23" fill="#636463"></path>
                <path d="M331.475758,98.8417251 C333.936364,98.8417251 335.50404,97.5386467 335.50404,95.5235876 L335.50404,95.4672438 C335.50404,93.3374481 333.990909,92.1736926 331.448485,92.1736926 L326.442424,92.1736926 L326.442424,98.8417251 L331.475758,98.8417251 Z M323,90.7579265 C323,89.7632024 323.753535,89 324.731313,89 L331.728283,89 C334.187879,89 336.119192,89.7345183 337.376768,90.9822773 C338.410101,92.0620294 339,93.5361881 339,95.2685038 L339,95.3238232 C339,98.5026379 337.179798,100.429596 334.550505,101.25324 L338.29899,106.04656 C338.634343,106.473749 338.859596,106.842545 338.859596,107.381396 C338.859596,108.344363 338.047475,109 337.208081,109 C336.426263,109 335.922222,108.629155 335.532323,108.092353 L330.774747,101.936536 L326.442424,101.936536 L326.442424,107.269733 C326.442424,108.2327 325.685859,109 324.731313,109 C323.753535,109 323,108.2327 323,107.269733 L323,90.7579265 Z" id="Fill-25" fill="#636463"></path>
                <path d="M352.66985,106.557428 C352.27944,106.279567 352,105.805096 352,105.249373 C352,104.361621 352.725335,103.66446 353.618132,103.66446 C354.09429,103.66446 354.401977,103.804895 354.625933,103.973418 C356.245074,105.249373 357.977201,105.970609 360.101755,105.970609 C362.224292,105.970609 363.562983,104.971512 363.562983,103.527034 L363.562983,103.472866 C363.562983,102.082556 362.783173,101.331227 359.150447,100.497643 C354.989105,99.4995486 352.642612,98.2777611 352.642612,94.6926472 L352.642612,94.6374762 C352.642612,91.3061491 355.432981,89 359.318919,89 C361.775372,89 363.759701,89.6379777 365.519067,90.8045942 C365.913511,91.0282877 366.275674,91.497743 366.275674,92.1668171 C366.275674,93.0555723 365.547313,93.7477179 364.653507,93.7477179 C364.319591,93.7477179 364.040151,93.6654629 363.759701,93.4979436 C362.252539,92.5279366 360.799852,92.0263818 359.263434,92.0263818 C357.251866,92.0263818 356.07862,93.0555723 356.07862,94.3315277 L356.07862,94.3866988 C356.07862,95.889357 356.973435,96.5554218 360.744367,97.4441769 C364.878472,98.442271 367,99.9178453 367,103.139833 L367,103.194001 C367,106.834286 364.122873,109 360.016006,109 C357.361827,109 354.846863,108.166416 352.66985,106.557428" id="Fill-27" fill="#636463"></path>
            </g>
        </g>
    </g>
</svg>