<svg width="31" height="32" viewBox="0 0 31 32" fill="none" xmlns="http://www.w3.org/2000/svg">
<path fill-rule="evenodd" clip-rule="evenodd" d="M15.5001 2.52607C22.5402 2.52607 28.2791 7.95835 28.4134 14.6831H30C29.8674 7.11697 23.4163 1 15.5001 1C7.58383 1 1.13245 7.11697 1 14.6831H2.58657C2.72089 7.95835 8.4597 2.52607 15.5001 2.52607Z" fill="white" stroke="white" stroke-width="1.2"/>
<path fill-rule="evenodd" clip-rule="evenodd" d="M15.5002 29.4851C8.71644 29.4851 3.13822 24.4792 2.59428 18.1338H1C1.54982 25.3157 7.8407 31 15.5002 31C23.1597 31 29.4503 25.3157 30 18.1338H28.4057C27.862 24.4792 22.2839 29.4851 15.5002 29.4851Z" fill="white" stroke="white" stroke-width="1.2"/>
<path fill-rule="evenodd" clip-rule="evenodd" d="M18.4022 14.026V14.0582C18.4022 15.0475 17.6402 15.8065 16.3363 15.8065H14.2702V12.2782H16.285C17.5891 12.2782 18.4022 12.8875 18.4022 14.026ZM12.9657 9.98584C12.2377 9.98584 11.6617 10.5466 11.6617 11.2556V20.3565C11.6617 21.0667 12.2377 21.6267 12.9657 21.6267C13.6944 21.6267 14.2702 21.0667 14.2702 20.3565V18.0644H16.2516C18.9108 18.0644 21.0441 16.6796 21.0441 14.0098V13.9755C21.0441 11.6181 19.334 9.98584 16.5058 9.98584H12.9657Z" fill="white"/>
</svg>
