<svg width="31" height="32" viewBox="0 0 31 32" fill="none" xmlns="http://www.w3.org/2000/svg">
<path fill-rule="evenodd" clip-rule="evenodd" d="M15.5001 2.52607C22.5402 2.52607 28.2791 7.95835 28.4134 14.6831H30C29.8674 7.11697 23.4163 1 15.5001 1C7.58383 1 1.13245 7.11697 1 14.6831H2.58657C2.72089 7.95835 8.4597 2.52607 15.5001 2.52607Z" fill="#602C8D" stroke="#602C8D" stroke-width="1.2"/>
<path fill-rule="evenodd" clip-rule="evenodd" d="M15.5002 29.4851C8.71644 29.4851 3.13822 24.4792 2.59428 18.1338H1C1.54982 25.3157 7.8407 31 15.5002 31C23.1597 31 29.4503 25.3157 30 18.1338H28.4057C27.862 24.4792 22.2839 29.4851 15.5002 29.4851Z" fill="#602C8D" stroke="#602C8D" stroke-width="1.2"/>
<path fill-rule="evenodd" clip-rule="evenodd" d="M18.4021 14.026V14.0582C18.4021 15.0475 17.6401 15.8065 16.3362 15.8065H14.2701V12.2782H16.2849C17.589 12.2782 18.4021 12.8875 18.4021 14.026ZM12.9656 9.98584C12.2376 9.98584 11.6616 10.5466 11.6616 11.2556V20.3565C11.6616 21.0667 12.2376 21.6267 12.9656 21.6267C13.6943 21.6267 14.2701 21.0667 14.2701 20.3565V18.0644H16.2515C18.9106 18.0644 21.044 16.6796 21.044 14.0098V13.9755C21.044 11.6181 19.3339 9.98584 16.5056 9.98584H12.9656Z" fill="#602C8D"/>
</svg>
